#!OML:ASF F:\VICON\USERDATA\INSTALL\rory3\rory3.ASF
:FULLY-SPECIFIED
:DEGREES
1802
root 7.7805 18.0359 -11.5306 -721.432 -61.2695 362.762
lowerback 10.4974 1.72222 -2.15754
upperback 0.69774 2.00357 -0.156448
thorax -5.22784 1.02569 0.754261
lowerneck -18.486 -3.70873 -9.44499
upperneck 30.0601 -4.49053 5.72786
head 13.6159 -2.39903 3.09799
rclavicle 2.55935e-015 -8.34896e-015
rhumerus -37.2201 -2.11023 -83.9695
rradius 38.9664
rwrist 3.60236
rhand -14.9332 9.24156
rfingers 7.12502
rthumb 11.2292 -20.4379
lclavicle 2.55935e-015 -8.34896e-015
lhumerus -37.1373 4.15868 82.7951
lradius 26.8189
lwrist -9.28108
lhand -12.4964 25.6843
lfingers 7.12502
lthumb 13.5786 55.2215
rfemur -4.45294 -15.3556 15.289
rtibia 55.0808
rfoot 3.62352 -8.87532
rtoes 13.5178
lfemur -6.97329 7.42636 -29.6424
ltibia 10.6713
lfoot -1.79091 1.87521
ltoes 1.51962
1803
root 7.68594 18.0252 -11.4828 -722.325 -60.646 363.628
lowerback 10.4657 1.69217 -2.63297
upperback 0.832983 1.90263 -0.25903
thorax -5.07737 0.982275 0.932862
lowerneck -18.4758 -3.71325 -9.40671
upperneck 29.996 -4.49638 5.70745
head 13.5852 -2.39726 3.08109
rclavicle -2.98798e-014 1.39149e-014
rhumerus -37.0502 -2.17597 -83.9786
rradius 38.7892
rwrist 3.64267
rhand -14.9796 9.16146
rfingers 7.12502
rthumb 11.1844 -20.5204
lclavicle -2.98798e-014 1.39149e-014
lhumerus -36.6458 3.40836 83.218
lradius 27.1927
lwrist -9.02233
lhand -13.0959 25.7073
lfingers 7.12502
lthumb 13.0007 55.2822
rfemur -5.28354 -15.0562 14.6706
rtibia 56.1737
rfoot 2.49287 -8.50016
rtoes 12.9804
lfemur -6.24433 7.39682 -30.1282
ltibia 10.4165
lfoot -2.0092 1.5921
ltoes 1.02463
1804
root 7.5957 18.0143 -11.4321 -722.609 -59.9291 363.892
lowerback 10.4042 1.60415 -2.70245
upperback 0.928825 1.77662 -0.323128
thorax -4.93785 0.918406 0.927092
lowerneck -18.5565 -3.71948 -9.42972
upperneck 30.0069 -4.50821 5.77511
head 13.6108 -2.39337 3.11039
rclavicle -3.99806e-014 1.44119e-015
rhumerus -36.9201 -2.28491 -84.0381
rradius 38.5743
rwrist 3.68888
rhand -15.1756 9.02196
rfingers 7.12502
rthumb 10.9954 -20.6701
lclavicle -3.99806e-014 1.44119e-015
lhumerus -36.1655 2.85078 83.5086
lradius 27.5828
lwrist -8.85011
lhand -13.461 25.6422
lfingers 7.12502
lthumb 12.6488 55.2392
rfemur -6.19802 -14.8099 14.4145
rtibia 57.1124
rfoot 1.59433 -7.92353
rtoes 11.6377
lfemur -5.70047 7.10061 -30.3108
ltibia 10.3375
lfoot -2.25384 1.43373
ltoes 1.97951
1805
root 7.50854 18.0083 -11.3815 -722.567 -59.1852 363.811
lowerback 10.4151 1.48431 -2.6088
upperback 0.946859 1.62886 -0.314558
thorax -4.91697 0.843438 0.905222
lowerneck -18.5791 -3.70781 -9.5074
upperneck 30.0787 -4.48899 5.84742
head 13.6487 -2.38477 3.1581
rclavicle -1.30825e-014 -8.59744e-015
rhumerus -36.9386 -2.37426 -84.0311
rradius 38.4361
rwrist 3.84283
rhand -15.1166 8.92263
rfingers 7.12502
rthumb 11.0523 -20.7664
lclavicle -1.30825e-014 -8.59744e-015
lhumerus -35.8234 2.73525 83.6424
lradius 27.9756
lwrist -9.19176
lhand -13.9086 25.4074
lfingers 7.12502
lthumb 12.2172 55.0306
rfemur -7.14734 -14.5614 14.4011
rtibia 57.8855
rfoot 0.845463 -7.51366
rtoes 9.75863
lfemur -5.33881 6.62005 -30.3056
ltibia 10.5016
lfoot -2.7253 1.21332
ltoes -0.367519
1806
root 7.42178 18.0016 -11.334 -722.46 -58.538 363.653
lowerback 10.4359 1.39053 -2.55122
upperback 0.942647 1.51417 -0.250694
thorax -4.92897 0.786736 0.955808
lowerneck -18.611 -3.71958 -9.59773
upperneck 30.2359 -4.46357 5.79588
head 13.7226 -2.39369 3.16082
rclavicle 1.63376e-014 4.27387e-015
rhumerus -36.9823 -2.43079 -83.9293
rradius 38.2633
rwrist 3.99411
rhand -14.9146 8.96949
rfingers 7.12502
rthumb 11.2471 -20.709
lclavicle 1.63376e-014 4.27387e-015
lhumerus -35.4899 2.68062 83.7755
lradius 28.3975
lwrist -9.46113
lhand -14.3636 25.3124
lfingers 7.12502
lthumb 11.7785 54.9612
rfemur -8.09119 -14.0845 14.4944
rtibia 58.5258
rfoot 0.0579498 -7.12749
rtoes 7.76605
lfemur -5.0808 6.44144 -30.2381
ltibia 10.839
lfoot -3.48838 0.669501
ltoes -5.29599
1807
root 7.33604 17.9928 -11.2885 -722.481 -57.9037 363.693
lowerback 10.3873 1.34124 -2.61953
upperback 0.957113 1.44461 -0.217875
thorax -4.88667 0.753793 1.03988
lowerneck -18.525 -3.75788 -9.66449
upperneck 30.2703 -4.50212 5.77989
head 13.7248 -2.422 3.16044
rclavicle 8.46698e-014 -3.08116e-015
rhumerus -36.9867 -2.49233 -83.8277
rradius 38.0879
rwrist 4.00352
rhand -14.9737 8.7842
rfingers 7.12502
rthumb 11.1902 -20.8974
lclavicle 8.46698e-014 -3.08116e-015
lhumerus -35.0749 2.25384 84.0425
lradius 28.837
lwrist -9.35422
lhand -14.3941 25.2068
lfingers 7.12502
lthumb 11.7491 54.8573
rfemur -9.06013 -13.6022 14.439
rtibia 59.0641
rfoot -0.830949 -6.58999
rtoes 6.48462
lfemur -4.8722 6.14298 -30.2668
ltibia 11.213
lfoot -4.16163 0.280413
ltoes -8.32938
1808
root 7.25117 17.9844 -11.2411 -722.723 -57.2537 363.956
lowerback 10.3404 1.29769 -2.74628
upperback 1.0082 1.37245 -0.249509
thorax -4.80646 0.718983 1.09032
lowerneck -18.339 -3.79144 -9.82106
upperneck 30.1943 -4.58997 6.00698
head 13.6716 -2.44898 3.26352
rclavicle -2.19284e-014 -1.31198e-014
rhumerus -36.9783 -2.59599 -83.7758
rradius 37.9425
rwrist 3.95509
rhand -15.3339 8.36014
rfingers 7.12502
rthumb 10.8427 -21.34
lclavicle -2.19284e-014 -1.31198e-014
lhumerus -34.6844 1.89512 84.2739
lradius 29.4244
lwrist -9.08097
lhand -14.1561 25.1606
lfingers 7.12502
lthumb 11.9786 54.7978
rfemur -10.004 -13.2279 14.163
rtibia 59.525
rfoot -1.73994 -5.92507
rtoes 5.72831
lfemur -4.60804 5.60429 -30.4463
ltibia 11.553
lfoot -4.42434 0.397117
ltoes -8.0145
1809
root 7.16557 17.9745 -11.1926 -722.925 -56.6837 364.126
lowerback 10.3773 1.23354 -2.82583
upperback 1.04809 1.27556 -0.277114
thorax -4.78248 0.67159 1.12018
lowerneck -18.27 -3.76639 -9.8598
upperneck 30.1819 -4.58353 6.11923
head 13.6545 -2.43617 3.31713
rclavicle -5.47155e-014 8.15017e-015
rhumerus -36.9676 -2.7565 -83.7139
rradius 37.7154
rwrist 4.1939
rhand -15.1248 8.74461
rfingers 7.12502
rthumb 11.0444 -20.9448
lclavicle -5.47155e-014 8.15017e-015
lhumerus -34.3486 1.82119 84.3245
lradius 30.1011
lwrist -8.7677
lhand -13.7405 25.2812
lfingers 7.12502
lthumb 12.3793 54.8946
rfemur -10.8954 -12.6475 13.9887
rtibia 59.8895
rfoot -2.77843 -5.43996
rtoes 6.11915
lfemur -4.27885 5.24912 -30.5716
ltibia 11.8213
lfoot -4.37107 0.859677
ltoes -0.367898
1810
root 7.07887 17.9595 -11.1501 -723.042 -56.1701 364.256
lowerback 10.4852 1.17063 -3.06027
upperback 0.986694 1.16354 -0.222086
thorax -4.90833 0.623939 1.32334
lowerneck -18.1286 -3.71285 -9.84907
upperneck 30.1593 -4.49938 6.05049
head 13.6033 -2.40949 3.30238
rclavicle 6.69159e-014 -9.44227e-015
rhumerus -37.0982 -2.56508 -83.6942
rradius 37.5767
rwrist 4.19428
rhand -14.5039 9.64878
rfingers 7.12502
rthumb 11.6432 -20.0077
lclavicle 6.69159e-014 -9.44227e-015
lhumerus -34.1271 1.65822 84.4782
lradius 30.7007
lwrist -8.488
lhand -13.6947 25.5396
lfingers 7.12502
lthumb 12.4234 55.1504
rfemur -11.8616 -11.8663 13.9456
rtibia 60.143
rfoot -4.02383 -5.29869
rtoes 6.75614
lfemur -4.03103 5.08559 -30.6545
ltibia 12.1557
lfoot -5.04639 0.558646
ltoes -4.69202
1811
root 6.99312 17.9421 -11.1103 -723.152 -55.5855 364.379
lowerback 10.5895 1.09637 -3.24741
upperback 0.919965 1.04037 -0.188387
thorax -5.03489 0.570181 1.47991
lowerneck -17.9803 -3.65006 -9.81212
upperneck 30.1887 -4.41102 5.96902
head 13.5715 -2.38107 3.27994
rclavicle -2.44754e-014 1.10325e-014
rhumerus -37.3023 -2.28165 -83.751
rradius 37.5524
rwrist 3.77127
rhand -14.5592 9.86545
rfingers 7.12502
rthumb 11.5899 -19.7941
lclavicle -2.44754e-014 1.10325e-014
lhumerus -33.9283 1.49371 84.6509
lradius 31.2652
lwrist -8.38511
lhand -14.2798 25.8535
lfingers 7.12502
lthumb 11.8593 55.4976
rfemur -12.8013 -11.1739 13.894
rtibia 60.2644
rfoot -5.42008 -5.40247
rtoes 6.8633
lfemur -3.82978 5.10118 -30.717
ltibia 12.5815
lfoot -5.45307 0.333947
ltoes -4.02174
